<svg xmlns="http://www.w3.org/2000/svg" viewBox="0 0 24 24" fill="none" stroke="currentColor" stroke-width="2" stroke-linecap="round" stroke-linejoin="round"><path d="M18.9 5.1a16 16 0 0 0-4-1.2 12 12 0 0 0-.5 1.1 15 15 0 0 0-4.4 0A12 12 0 0 0 9.5 4a16 16 0 0 0-4 1.2C2 10.4 1 15.5 1.5 20.5a16 16 0 0 0 5 2.5 12 12 0 0 0 1-1.6 10 10 0 0 1-1.6-.8l.4-.3a11.5 11.5 0 0 0 9.9 0l.4.3a10 10 0 0 1-1.6.8 12 12 0 0 0 1 1.6 16 16 0 0 0 5-2.5c.6-5.7-.9-10.7-3.6-15.5zM8.3 17.3c-1.3 0-2.4-1.2-2.4-2.7S7 11.9 8.3 11.9s2.4 1.2 2.4 2.7-1.1 2.7-2.4 2.7zm7.4 0c-1.3 0-2.4-1.2-2.4-2.7s1.1-2.7 2.4-2.7 2.4 1.2 2.4 2.7-1.1 2.7-2.4 2.7z"/></svg>
